<svg width="0" height="0" class="hidden">
  <symbol xmlns="http://www.w3.org/2000/svg" xmlns:xlink="http://www.w3.org/1999/xlink" aria-hidden="true" role="img" preserveAspectRatio="xMidYMid meet" viewBox="0 0 64 64" id="club">
    <path d="M47 18.875c-.044 0-.086.008-.13.008c.076-.619.13-1.244.13-1.883c0-8.283-6.716-15-15-15c-8.286 0-15 6.717-15 15c0 .639.053 1.264.13 1.883c-.044 0-.086-.008-.13-.008c-8.286 0-15 6.717-15 15s6.714 15 15 15c4.807 0 9.075-2.271 11.819-5.788l-.569 4.851c-.505 3.589-2.994 6.872-6.563 7.5L17 56.375V62h30v-5.625l-4.688-.938c-3.57-.628-6.06-3.909-6.563-7.5l-.571-4.851c2.744 3.518 7.013 5.788 11.821 5.788c8.284 0 15-6.717 15-15S55.284 18.875 47 18.875" fill="#000000"></path>
  </symbol>
  <symbol version="1.1" id="diamond" xmlns="http://www.w3.org/2000/svg" xmlns:xlink="http://www.w3.org/1999/xlink" xml:space="preserve" viewBox="0 0 512 512">
    <g>
      <path d="M431.684,252.936c-40.578-32.779-150.62-185.32-171.561-247.398C258.899,1.913,257.845,0,255.988,0
		c-1.832,0-2.894,1.913-4.11,5.538C230.92,67.616,120.894,220.157,80.308,252.936c-1.053,0.843-1.946,2.44-1.946,3.064
		c0,0.624,0.893,2.222,1.946,3.057c40.586,32.778,150.612,185.319,171.57,247.406c1.216,3.624,2.278,5.537,4.11,5.537
		c1.857,0,2.911-1.913,4.135-5.537c20.941-62.087,130.983-214.628,171.561-247.406c1.046-0.835,1.954-2.432,1.954-3.057
		C433.638,255.376,432.73,253.778,431.684,252.936z" fill="#DD2E44"></path>
    </g>
  </symbol>
  <symbol xmlns="http://www.w3.org/2000/svg" xmlns:xlink="http://www.w3.org/1999/xlink" aria-hidden="true" role="img" preserveAspectRatio="xMidYMid meet" viewBox="0 0 36 36" id="heart">
    <path fill="#DD2E44" d="M35.885 11.833c0-5.45-4.418-9.868-9.867-9.868c-3.308 0-6.227 1.633-8.018 4.129c-1.791-2.496-4.71-4.129-8.017-4.129c-5.45 0-9.868 4.417-9.868 9.868c0 .772.098 1.52.266 2.241C1.751 22.587 11.216 31.568 18 34.034c6.783-2.466 16.249-11.447 17.617-19.959c.17-.721.268-1.469.268-2.242z"></path>
  </symbol>
  <symbol xmlns="http://www.w3.org/2000/svg" xmlns:xlink="http://www.w3.org/1999/xlink" aria-hidden="true" role="img" preserveAspectRatio="xMidYMid meet" viewBox="0 0 128 128" id="letter-a">
    <path d="M115.37 117.77L77.78 17.81a2.242 2.242 0 0 0-2.1-1.45H52.32c-.94 0-1.77.58-2.1 1.45l-37.59 99.96c-.26.69-.17 1.46.25 2.06s1.1.97 1.84.97h24.64c.96 0 1.82-.62 2.13-1.54l5.7-17.18H80.8l5.71 17.18c.3.92 1.16 1.54 2.13 1.54h24.64a2.236 2.236 0 0 0 2.09-3.03zm-61.14-36.9L64 51.45l9.77 29.43H54.23z" fill="#000000"></path>
  </symbol>
  <symbol xmlns="http://www.w3.org/2000/svg" xmlns:xlink="http://www.w3.org/1999/xlink" aria-hidden="true" role="img" preserveAspectRatio="xMidYMid meet" viewBox="0 0 128 128" id="letter-j">
    <path d="M100.08 16.44H75.44c-1.24 0-2.24 1-2.24 2.24v45.53c.31 10.84-.18 23.69-1.52 25.89c-.1.13-.2.28-.27.43c-1.6 3.33-6.9 6.78-12.99 6.78c-6.33 0-13.78-5.46-15.94-11.68a2.24 2.24 0 0 0-2.79-1.41l-20.47 6.41c-1.06.33-1.7 1.38-1.53 2.48c.01.07.03.14.04.2c2.32 17.58 18.94 29.38 41.46 29.38c22.53 0 39.16-11.81 41.48-29.4c.02-.1.04-.19.05-.29c1.56-15.02 1.58-28.71 1.58-28.85V18.68c.02-1.23-.98-2.24-2.22-2.24z" fill="#000000"></path>
  </symbol>
  <symbol xmlns="http://www.w3.org/2000/svg" xmlns:xlink="http://www.w3.org/1999/xlink" aria-hidden="true" role="img" preserveAspectRatio="xMidYMid meet" viewBox="0 0 128 128" id="letter-k">
    <path d="M110.55 117.41L76.92 63.69l29.73-44.82c.45-.69.5-1.57.1-2.3a2.222 2.222 0 0 0-1.97-1.18H80.34c-.74 0-1.45.38-1.86 1L51.49 57.08V17.64c0-1.24-1.01-2.24-2.24-2.24h-21.9c-1.24 0-2.24 1-2.24 2.24V118.6c0 1.24 1 2.24 2.24 2.24h21.9c1.23 0 2.24-1 2.24-2.24V70.55l30.82 49.24c.41.65 1.13 1.05 1.9 1.05h24.44c.81 0 1.57-.44 1.96-1.16c.39-.71.37-1.58-.06-2.27z" fill="#DD2E44"></path>
  </symbol>
  <symbol xmlns="http://www.w3.org/2000/svg" xmlns:xlink="http://www.w3.org/1999/xlink" aria-hidden="true" role="img" preserveAspectRatio="xMidYMid meet" viewBox="0 0 128 128" id="letter-q">
    <path d="M102.61 107.83c10.8-9.85 16.84-24.08 16.84-39.9c0-29.73-21.33-53.82-55.45-53.82S8.55 38.21 8.55 67.93c0 29.73 21.33 53.82 55.45 53.82c7.69 0 14.72-1.23 21.01-3.47l5.97 8.54a2.079 2.079 0 0 0 2.28.81l16.51-4.75c.64-.19 1.16-.67 1.39-1.31c.22-.63.13-1.33-.26-1.89l-8.29-11.85zM64 95.89c-17.72 0-28.81-12.52-28.81-27.96S46.27 39.97 64 39.97s28.81 12.52 28.81 27.96c0 6.65-2.07 12.76-5.82 17.56l-7.26-10.38a2.086 2.086 0 0 0-2.28-.81l-16.52 4.75c-.64.19-1.16.67-1.39 1.31c-.22.63-.13 1.33.26 1.89l9.27 13.25c-1.62.24-3.3.39-5.07.39z" fill="#DD2E44"></path>
  </symbol>
  <symbol fill="#DD2E44" id="number-eight" xmlns="http://www.w3.org/2000/svg" viewBox="0 0 256 256">
    <path d="M173.165,132.917a64.39243,64.39243,0,0,0-23.15332-13.92627,54.97221,54.97221,0,0,0,16.626-10.70263,49.6335,49.6335,0,0,0,0-73.24268,57.13491,57.13491,0,0,0-77.2754,0,49.6335,49.6335,0,0,0,0,73.24268,54.97221,54.97221,0,0,0,16.626,10.70263A64.39243,64.39243,0,0,0,82.835,132.917a57.93209,57.93209,0,0,0,0,85.49951,66.79729,66.79729,0,0,0,90.33008,0,57.93209,57.93209,0,0,0,0-85.49951ZM94.83887,102.45605a41.63494,41.63494,0,0,1,0-61.57861,49.13589,49.13589,0,0,1,66.32226,0,41.63494,41.63494,0,0,1,0,61.57861,49.13586,49.13586,0,0,1-66.32226,0Zm72.84961,110.12842a58.7983,58.7983,0,0,1-79.377,0,49.93355,49.93355,0,0,1,0-73.83545,58.79833,58.79833,0,0,1,79.377,0,49.93355,49.93355,0,0,1,0,73.83545Z"></path>
  </symbol>
  <symbol fill="#000000" id="number-six" xmlns="http://www.w3.org/2000/svg" viewBox="0 0 256 256">
    <path d="M128,104a63.75508,63.75508,0,0,0-19.49121,3.04492l42.36035-70.9436a8.00043,8.00043,0,0,0-13.73828-8.20288L72.6416,135.90332c-.10449.17529-.19385.355-.28369.53442A63.97854,63.97854,0,1,0,128,104Zm0,112a47.97612,47.97612,0,0,1-41.15674-72.67017l.17749-.29736A47.99419,47.99419,0,1,1,128,216Z"></path>
  </symbol>
  <symbol xmlns="http://www.w3.org/2000/svg" xmlns:xlink="http://www.w3.org/1999/xlink" version="1.1" baseProfile="full" enable-background="new 0 0 76.00 76.00" xml:space="preserve" viewBox="0 0 76 76" id="spade">
    <path fill="#000000" fill-opacity="1" stroke-width="0.2" stroke-linejoin="round" d="M 40.874,51.9409C 41.0523,54.7257 41.5633,57.4933 42.407,60.2438L 33.96,60.2438C 34.639,56.9995 35.15,54.2318 35.493,51.9409L 35.6268,46.3438C 36.052,45.8911 36.4293,45.8911 36.7585,46.3438C 35.8394,47.99 34.8585,49.3344 33.8159,50.377C 32.3344,51.8586 30.1429,52.5993 27.2415,52.5993C 25.1563,52.5993 23.469,51.8586 22.1794,50.377C 20.5264,48.724 19.6999,46.4433 19.6999,43.535C 19.6999,40.2495 22.9271,34.2478 29.3815,25.5298L 38.1783,13.8522L 47.1089,25.4578C 53.481,33.5584 56.6671,39.5842 56.6671,43.535C 56.6671,46.4364 55.8406,48.7171 54.1875,50.377C 52.7059,51.8586 50.9363,52.5993 48.8786,52.5993C 46.1623,52.5993 43.9366,51.8277 42.2012,50.2844C 40.6373,48.7205 39.7731,47.4516 39.6085,46.4776C 39.9514,46.313 40.1229,46.2924 40.1229,46.4159L 40.874,51.9409 Z "></path>
  </symbol>
</svg>