<svg width="0" height="0" class="hidden">
  <symbol version="1.1" xmlns="http://www.w3.org/2000/svg" viewBox="0 0 32 32" id="dribble">
    <title>dribble</title>
    <path d="M25.916 7.921c-1.881 2.234-4.289 3.965-7.035 5.009l-0.118 0.039c0.3 0.612 0.587 1.231 0.85 1.857 0.1 0.225 0.187 0.45 0.275 0.662 0.927-0.102 2.003-0.16 3.092-0.16 2.063 0 4.077 0.208 6.023 0.605l-0.193-0.033c-0.020-3.040-1.107-5.821-2.904-7.994l0.017 0.021zM13.001 3.569c1.595 2.15 3.176 4.6 4.598 7.151l0.178 0.347c2.712-0.908 4.989-2.511 6.694-4.6l0.021-0.026c-2.247-2.006-5.228-3.232-8.494-3.232-1.063 0-2.096 0.13-3.084 0.375l0.088-0.018zM3.46 13.395c4.219-0.022 8.295-0.59 12.176-1.636l-0.333 0.076c-1.652-2.899-3.222-5.318-4.912-7.644l0.163 0.236c-3.596 1.721-6.227 4.966-7.077 8.875l-0.015 0.085zM6.484 24.585c2.42-3.882 6.010-6.839 10.271-8.408l0.141-0.045c0.169-0.056 0.337-0.105 0.506-0.15-0.325-0.731-0.675-1.458-1.040-2.174-3.888 1.154-8.355 1.819-12.977 1.819-0.066 0-0.131-0-0.196-0l0.010 0-0.005 0.39c0 0.003 0 0.006 0 0.009 0 3.297 1.25 6.302 3.301 8.568l-0.010-0.011zM21.005 27.809c-0.682-3.699-1.63-6.957-2.863-10.070l0.126 0.361-0.082 0.025c-4.314 1.346-7.826 4.192-10.002 7.915l-0.045 0.083c2.145 1.688 4.885 2.707 7.863 2.707 1.805 0 3.522-0.374 5.078-1.049l-0.083 0.032zM28.646 18.052c-1.571-0.474-3.376-0.747-5.245-0.747-0.964 0-1.911 0.073-2.836 0.213l0.104-0.013c0.98 2.564 1.842 5.629 2.436 8.789l0.054 0.344c2.874-1.96 4.893-4.993 5.482-8.51l0.010-0.075zM16 30.996c0 0 0 0-0 0-8.282 0-14.996-6.714-14.996-14.996s6.714-14.996 14.996-14.996c8.282 0 14.996 6.714 14.996 14.996 0 0 0 0 0 0v0c-0.011 8.277-6.718 14.984-14.995 14.996h-0.001z"></path>
  </symbol>
  <symbol xmlns="http://www.w3.org/2000/svg" viewBox="0 0 1920 1920" id="facebook">
    <path d="M1168.737 487.897c44.672-41.401 113.824-36.889 118.9-36.663l289.354-.113 6.317-417.504L1539.65 22.9C1511.675 16.02 1426.053 0 1237.324 0 901.268 0 675.425 235.206 675.425 585.137v93.97H337v451.234h338.425V1920h451.234v-789.66h356.7l62.045-451.233H1126.66v-69.152c0-54.937 14.214-96.112 42.078-122.058" fill-rule="evenodd"></path>
  </symbol>
  <symbol xmlns="http://www.w3.org/2000/svg" viewBox="0 0 24 24" id="github">
    <title>github</title>
    <rect width="24" height="24" fill="none"></rect>
    <path d="M12,2A10,10,0,0,0,8.84,21.5c.5.08.66-.23.66-.5V19.31C6.73,19.91,6.14,18,6.14,18A2.69,2.69,0,0,0,5,16.5c-.91-.62.07-.6.07-.6a2.1,2.1,0,0,1,1.53,1,2.15,2.15,0,0,0,2.91.83,2.16,2.16,0,0,1,.63-1.34C8,16.17,5.62,15.31,5.62,11.5a3.87,3.87,0,0,1,1-2.71,3.58,3.58,0,0,1,.1-2.64s.84-.27,2.75,1a9.63,9.63,0,0,1,5,0c1.91-1.29,2.75-1,2.75-1a3.58,3.58,0,0,1,.1,2.64,3.87,3.87,0,0,1,1,2.71c0,3.82-2.34,4.66-4.57,4.91a2.39,2.39,0,0,1,.69,1.85V21c0,.27.16.59.67.5A10,10,0,0,0,12,2Z"></path>
  </symbol>
  <symbol id="instagram" xmlns="http://www.w3.org/2000/svg" fill="none" viewBox="0 0 192 192">
    <path stroke="#000000" stroke-width="12" d="M96 162c-14.152 0-24.336-.007-32.276-.777-7.849-.761-12.87-2.223-16.877-4.741a36 36 0 0 1-11.33-11.329c-2.517-4.007-3.98-9.028-4.74-16.877C30.007 120.336 30 110.152 30 96c0-14.152.007-24.336.777-32.276.76-7.849 2.223-12.87 4.74-16.877a36 36 0 0 1 11.33-11.33c4.007-2.517 9.028-3.98 16.877-4.74C71.663 30.007 81.847 30 96 30c14.152 0 24.336.007 32.276.777 7.849.76 12.87 2.223 16.877 4.74a36 36 0 0 1 11.329 11.33c2.518 4.007 3.98 9.028 4.741 16.877.77 7.94.777 18.124.777 32.276 0 14.152-.007 24.336-.777 32.276-.761 7.849-2.223 12.87-4.741 16.877a36 36 0 0 1-11.329 11.329c-4.007 2.518-9.028 3.98-16.877 4.741-7.94.77-18.124.777-32.276.777Z"></path>
    <circle cx="96" cy="96" r="30" stroke="#000000" stroke-width="12"></circle>
    <circle cx="135" cy="57" r="9" fill="#000000"></circle>
  </symbol>
  <symbol xmlns="http://www.w3.org/2000/svg" viewBox="0 0 1920 1920" id="twitter">
    <path d="M1920 311.856c-70.701 33.769-146.598 56.47-226.221 66.86 81.317-52.517 143.774-135.529 173.252-234.691-76.236 48.678-160.716 84.028-250.391 103.002-71.718-82.56-174.268-134.06-287.435-134.06-217.75 0-394.165 189.966-394.165 424.206 0 33.318 3.614 65.619 10.165 96.678C617.9 616.119 327.304 447.385 133.045 190.67c-33.77 62.57-53.309 135.53-53.309 213.233 0 147.162 91.031 276.818 196.744 353.054-64.602-2.26-157.101-21.46-157.101-53.309v5.648c0 205.327 114.41 376.658 294.55 415.849-32.978 9.487-78.38 14.795-114.409 14.795-25.412 0-55.454-2.71-79.624-7.793 50.26 168.509 193.13 291.163 365.478 294.777-134.852 113.506-306.07 181.383-490.616 181.383-31.85 0-64.038-2.033-94.758-5.873 174.494 120.17 381.176 190.532 603.67 190.532 724.97 0 1121.055-646.136 1121.055-1206.55 0-18.41-.452-36.932-1.356-55.116 77.026-59.746 143.887-134.4 196.631-219.444" fill-rule="evenodd"></path>
  </symbol>
</svg>