<svg width="0" height="0" class="hidden">
  <symbol xmlns="http://www.w3.org/2000/svg" viewBox="0 0 1920 1920" id="facebook">
    <path d="M1168.737 487.897c44.672-41.401 113.824-36.889 118.9-36.663l289.354-.113 6.317-417.504L1539.65 22.9C1511.675 16.02 1426.053 0 1237.324 0 901.268 0 675.425 235.206 675.425 585.137v93.97H337v451.234h338.425V1920h451.234v-789.66h356.7l62.045-451.233H1126.66v-69.152c0-54.937 14.214-96.112 42.078-122.058" fill-rule="evenodd"></path>
  </symbol>
  <symbol xmlns="http://www.w3.org/2000/svg" fill="none" viewBox="0 0 192 192" id="instagram">
    <path stroke="#565656" stroke-width="12" d="M96 162c-14.152 0-24.336-.007-32.276-.777-7.849-.761-12.87-2.223-16.877-4.741a36 36 0 0 1-11.33-11.329c-2.517-4.007-3.98-9.028-4.74-16.877C30.007 120.336 30 110.152 30 96c0-14.152.007-24.336.777-32.276.76-7.849 2.223-12.87 4.74-16.877a36 36 0 0 1 11.33-11.33c4.007-2.517 9.028-3.98 16.877-4.74C71.663 30.007 81.847 30 96 30c14.152 0 24.336.007 32.276.777 7.849.76 12.87 2.223 16.877 4.74a36 36 0 0 1 11.329 11.33c2.518 4.007 3.98 9.028 4.741 16.877.77 7.94.777 18.124.777 32.276 0 14.152-.007 24.336-.777 32.276-.761 7.849-2.223 12.87-4.741 16.877a36 36 0 0 1-11.329 11.329c-4.007 2.518-9.028 3.98-16.877 4.741-7.94.77-18.124.777-32.276.777Z"></path>
    <circle cx="96" cy="96" r="30" stroke="#565656" stroke-width="12"></circle>
    <circle cx="135" cy="57" r="9" fill="#565656"></circle>
  </symbol>
  <symbol version="1.1" id="linkedin" xmlns="http://www.w3.org/2000/svg" xmlns:xlink="http://www.w3.org/1999/xlink" xml:space="preserve" viewBox="-271 283.9 256 235.1">
    <g>
      <rect x="-264.4" y="359.3" width="49.9" height="159.7"></rect>
      <path d="M-240.5,283.9c-18.4,0-30.5,11.9-30.5,27.7c0,15.5,11.7,27.7,29.8,27.7h0.4c18.8,0,30.5-12.3,30.4-27.7
		C-210.8,295.8-222.1,283.9-240.5,283.9z"></path>
      <path d="M-78.2,357.8c-28.6,0-46.5,15.6-49.8,26.6v-25.1h-56.1c0.7,13.3,0,159.7,0,159.7h56.1v-86.3c0-4.9-0.2-9.7,1.2-13.1
		c3.8-9.6,12.1-19.6,27-19.6c19.5,0,28.3,14.8,28.3,36.4V519h56.6v-88.8C-14.9,380.8-42.7,357.8-78.2,357.8z"></path>
    </g>
  </symbol>
  <symbol  xmlns="http://www.w3.org/2000/svg" viewBox="0 0 1920 1920" id="twitter">
    <path d="M1920 311.856c-70.701 33.769-146.598 56.47-226.221 66.86 81.317-52.517 143.774-135.529 173.252-234.691-76.236 48.678-160.716 84.028-250.391 103.002-71.718-82.56-174.268-134.06-287.435-134.06-217.75 0-394.165 189.966-394.165 424.206 0 33.318 3.614 65.619 10.165 96.678C617.9 616.119 327.304 447.385 133.045 190.67c-33.77 62.57-53.309 135.53-53.309 213.233 0 147.162 91.031 276.818 196.744 353.054-64.602-2.26-157.101-21.46-157.101-53.309v5.648c0 205.327 114.41 376.658 294.55 415.849-32.978 9.487-78.38 14.795-114.409 14.795-25.412 0-55.454-2.71-79.624-7.793 50.26 168.509 193.13 291.163 365.478 294.777-134.852 113.506-306.07 181.383-490.616 181.383-31.85 0-64.038-2.033-94.758-5.873 174.494 120.17 381.176 190.532 603.67 190.532 724.97 0 1121.055-646.136 1121.055-1206.55 0-18.41-.452-36.932-1.356-55.116 77.026-59.746 143.887-134.4 196.631-219.444" fill-rule="evenodd"></path>
  </symbol>
</svg>